<?xml version="1.0" encoding="UTF-8"?>
<svg id="Ebene_1" data-name="Ebene 1" xmlns="http://www.w3.org/2000/svg" viewBox="0 0 4647.55 2125">
  <defs>
    <style>
      .cls-1 {
        fill: #fff;
      }
    </style>
  </defs>
  <g>
    <path class="cls-1" d="m1859.51,868.06l-133.69-224.74h-440.44l55.34-96.84h327.42l-221.3-371.22-411.58,692.88h-127.86L1396.17,55.44c13.83-23.05,29.96-36.88,55.32-36.88s40.34,13.83,54.17,36.88l488.76,812.7-134.91-.08Z"/>
    <path class="cls-1" d="m2096.16,868.16V29.98h698.66v111.83h-586.83v726.33l-111.83.02Zm220.21-360.88v-103.76h445.02v103.76h-445.02Z"/>
    <path class="cls-1" d="m3011.57,198.29v669.85h-107.22V88.77c0-42.65,23.05-69.16,58.79-69.16,17.29,0,34.58,8.07,53.02,26.51l634.12,649.09V25.36h107.22v785.12c0,42.65-24.21,68.01-56.48,68.01-19.6,0-41.5-11.53-57.63-28.82l-631.81-651.38Z"/>
    <path class="cls-1" d="m3910.84,868.17V29.98h735.56v111.83h-623.72v614.5h624.88v111.83l-736.71.03Zm220.21-374.73v-103.76h484.22v103.76h-484.22Z"/>
    <polygon class="cls-1" points="82.38 29.98 27.66 30.35 0 76.09 56.37 76.09 82.38 29.98"/>
    <polygon class="cls-1" points="266.62 442.72 211.89 443.09 184.22 488.83 240.6 488.83 266.62 442.72"/>
    <polygon class="cls-1" points="321.55 119.9 266.83 120.28 239.17 166.02 295.54 166.02 321.55 119.9"/>
    <polygon class="cls-1" points="264.45 0 186.46 .54 147.05 65.72 227.37 65.72 264.45 0"/>
    <path class="cls-1" d="m541.95,29.98h-33.42l-31.88,56.49h-81.82l34.17-56.49h-164.37l-46.15,81.86h-118.42l49.5-81.86h-31l-31.88,56.49h-21.95v146.42l59.06-.4-37.31,66.12h-21.75v569.54h477.21c231.69,0,400.07-184.43,400.07-427.75S773.75,29.98,541.95,29.98Zm-17.27,27.67l42.77-.3-20.23,36.04h-44.04l21.5-35.74ZM111.82,568.38h-44.03l21.61-35.74,42.76-.3-20.34,36.04Zm-38.18-133.74l29.98-49.57,59.31-.41-28.19,49.99h-61.1Zm467.9,321.66H175.42v-251.33h-29.63l29.63-48.93v-110.17h-75.46l39.91-65.72h36.7v-71.48h-75.71l39.74-65.72,35.97-.25v-.9h43.26l46.74-77.24,114.37-.79-44.04,78.04h19.68l19.51-32.28,77.89-.53-18.51,32.82h106.07c165.99,0,288.25,125.65,288.25,304.39.05,177.52-122.17,310.11-288.25,310.11Z"/>
  </g>
  <g>
    <rect class="cls-1" x="736.15" y="1241.73" width="644.26" height="62.35"/>
    <rect class="cls-1" x="736.15" y="1480.74" width="644.26" height="62.35"/>
    <rect class="cls-1" x="736.15" y="1709.35" width="644.26" height="62.35"/>
    <rect class="cls-1" x="736.15" y="1948.35" width="644.26" height="62.35"/>
    <rect class="cls-1" x="964.76" y="1356.04" width="644.26" height="62.35"/>
    <rect class="cls-1" x="964.76" y="1595.04" width="644.26" height="62.35"/>
    <rect class="cls-1" x="964.76" y="1834.04" width="644.26" height="62.35"/>
    <rect class="cls-1" x="964.76" y="2062.65" width="644.26" height="62.35"/>
    <path class="cls-1" d="m2882.43,1241.73h-60.7l-37.01,158.81c-2.4,9.55-5.05,22.05-7.98,37.52-2.91,15.46-5.03,28.36-6.36,38.71-1.47-10.75-3.59-23.62-6.38-38.62-2.77-14.98-5.09-26.14-6.96-33.43l-42.38-162.99h-58.31l-42.38,162.99c-2.53,8.75-5.22,21.06-8.06,36.91-2.87,15.86-4.67,27.56-5.47,35.13-2.93-21.5-7.64-46.9-14.14-76.22l-37.21-158.81h-60.7l74.24,290.96h70.04l39.21-152.46c1.73-6.76,4.17-18.08,7.36-33.93,3.19-15.85,5.18-27.36,5.96-34.53.54,5.84,2.57,17.29,6.08,34.34,3.53,17.05,6,28.29,7.47,33.74l39.42,152.84h70.25l74.03-290.96Zm-605.39,176.66c20.94-67.79,33.63-110.28,38.05-127.46,1.08,4.83,2.84,11.41,5.34,19.72,2.47,8.32,13.6,44.24,33.33,107.73h-76.72Zm177.99,114.29l-102.68-290.96h-75.11l-102.27,290.96h65.02l21.34-62.35h107.33l21.35,62.35h65.02Zm-357.62-290.96h-72.74v114.31h-114.31v-114.31h-62.35v290.96h62.35v-124.7h114.31v124.7h72.74v-290.96Z"/>
    <path class="cls-1" d="m4040.59,1896.39h51.97v61.41c-13.71,2.69-27.22,4.03-40.52,4.03-25.53,0-44.96-8.43-58.33-25.27-13.38-16.84-20.08-41.24-20.08-73.2s8.31-54.97,24.91-73.09c16.6-18.12,38.68-27.18,66.26-27.18,23.72,0,46.58,5.37,68.52,16.12l21.19-49.95c-28.68-12.09-58.44-18.12-89.32-18.12-49.23,0-87.75,13.29-115.51,39.88-27.79,26.58-41.69,63.62-41.69,111.15s11.97,86.36,35.92,112.47c23.93,26.1,58.61,39.17,104,39.17,17.84,0,35.29-1.24,52.37-3.72,17.08-2.48,35.29-6.81,54.63-12.99v-152.65h-114.31v51.96h-.01Zm-319.68,0l71.12,114.31h65.72c-13.28-19.1-41.78-61.36-85.59-126.77,17.27-7.56,30.59-18.01,40.01-31.34,9.41-13.34,14.12-28.56,14.12-45.67,0-29.32-9.49-51.18-28.46-65.57-18.96-14.4-48.22-21.61-87.75-21.61h-85.14v290.96h62.35v-114.31h33.62Zm-33.62-135.09h19.79c21.05,0,36.57,3.08,46.6,9.28,10.04,6.16,15.06,16.54,15.06,31.15s-4.92,25.53-14.74,32.4c-9.82,6.86-25.06,10.31-45.67,10.31h-21.05v-83.13Zm-239-41.57v179.83c0,22.81-4.49,39.57-13.46,50.24-8.97,10.66-23.4,16-43.31,16s-35.27-5.31-44.18-15.91-13.36-27.25-13.36-49.94v-180.23h-62.35v189.68c0,33.7,10.36,60.25,31.07,79.64,20.72,19.4,49.81,29.11,87.24,29.11,24.83,0,46.33-4.36,64.54-13.09,18.19-8.73,32.08-21.27,41.72-37.66,9.64-16.38,14.43-35.43,14.43-57.18v-190.49h-62.35Zm-384.48,166.27c37.52,0,56.29,11.59,56.29,34.75,0,12.86-4.42,22.39-13.23,28.63-8.8,6.24-22.45,9.35-40.91,9.35h-43.72v-72.74h41.57Zm-41.57-114.31h31.26c17.02,0,29.45,2.34,37.32,7,7.87,4.68,11.79,12.37,11.79,23.12,0,11.51-3.61,19.76-10.85,24.75-7.22,4.99-18.89,7.48-35,7.48h-34.53v-62.35Zm-62.35,239h110.63c33.45,0,59.91-7.43,79.37-22.29,19.49-14.86,29.23-35.55,29.23-62.09,0-18.71-4.13-33.71-12.43-44.98-8.3-11.29-21.81-18.98-40.55-23.09v-1.99c13.74-2.25,24.77-8.96,33.06-20.1,8.3-11.14,12.43-25.4,12.43-42.78,0-25.6-9.46-44.28-28.42-56.02-18.93-11.74-49.37-17.61-91.32-17.61h-92.01v290.96Zm-240.93,0l75.91-228.61h1.83c-1.62,35.01-2.51,57.84-2.74,66.43-.19,8.58-.28,16.17-.33,22.74v139.43h51.96v-301.34h-84.17l-73.19,228.61h-1.2l-69.01-228.61h-84.17v301.35h51.96v-135.53c0-15.55-1.19-46.57-3.57-93.08h1.68l66.02,228.61h69.03Zm-441.92-124.69c20.94-67.78,33.63-110.27,38.05-127.46,1.08,4.83,2.84,11.41,5.34,19.73,2.47,8.32,13.6,44.24,33.33,107.72h-76.72Zm177.99,124.69l-102.68-290.96h-75.11l-102.27,290.96h62.17l22.15-72.74h111.41l22.16,72.74h62.17Zm-357.62-290.96h-72.74v114.31h-114.31v-114.31h-62.35v290.96h62.35v-124.7h114.31v124.7h72.74v-294.48,3.52Z"/>
  </g>
</svg>