<?xml version="1.0" encoding="UTF-8"?>
<svg id="Ebene_1" data-name="Ebene 1" xmlns="http://www.w3.org/2000/svg" viewBox="0 0 2538.14 2072.61">
  <defs>
    <style>
      .cls-1 {
        fill: #fff;
      }
    </style>
  </defs>
  <g>
    <path class="cls-1" d="m1001.58,467.56l-72.01-121.05h-237.23l29.81-52.16h176.36l-119.2-199.95-221.69,373.2h-68.87L752.01,29.86c7.45-12.42,16.14-19.86,29.8-19.86s21.73,7.45,29.18,19.86l263.26,437.74-72.67-.04Z"/>
    <path class="cls-1" d="m1129.05,467.61V16.15h376.32v60.23h-316.08v391.22h-60.23s0,.01,0,.01Zm118.61-194.38v-55.89h239.7v55.89h-239.7Z"/>
    <path class="cls-1" d="m1622.11,106.8v360.8h-57.75V47.81c0-22.97,12.42-37.25,31.67-37.25,9.31,0,18.63,4.35,28.56,14.28l341.55,349.62V13.66h57.75v422.89c0,22.97-13.04,36.63-30.42,36.63-10.56,0-22.35-6.21-31.04-15.52l-340.31-350.85h0Z"/>
    <path class="cls-1" d="m2106.48,467.62V16.15h396.19v60.23h-335.95v330.99h336.58v60.23l-396.81.02h0Zm118.61-201.84v-55.89h260.81v55.89h-260.81Z"/>
    <polygon class="cls-1" points="44.37 16.15 14.9 16.35 0 40.98 30.36 40.98 44.37 16.15"/>
    <polygon class="cls-1" points="143.61 238.46 114.13 238.66 99.23 263.3 129.59 263.3 143.61 238.46"/>
    <polygon class="cls-1" points="173.2 64.58 143.72 64.79 128.82 89.42 159.19 89.42 173.2 64.58"/>
    <polygon class="cls-1" points="142.44 0 100.43 .29 79.21 35.4 122.47 35.4 142.44 0"/>
    <path class="cls-1" d="m291.91,16.15h-18l-17.17,30.43h-44.07l18.4-30.43h-88.53l-24.86,44.09h-63.78l26.66-44.09h-16.7l-17.17,30.43h-11.82v78.87l31.81-.22-20.1,35.61h-11.72v306.77h257.04c124.79,0,215.49-99.34,215.49-230.4S416.76,16.15,291.91,16.15Zm-9.3,14.9l23.04-.16-10.9,19.41h-23.72l11.58-19.25h0ZM60.23,306.14h-23.72l11.64-19.25,23.03-.16s-10.96,19.41-10.96,19.41Zm-20.56-72.04l16.15-26.7,31.95-.22-15.18,26.93h-32.91,0Zm252.02,173.25H94.49v-135.37h-15.96l15.96-26.36v-59.34h-40.64l21.5-35.4h19.77v-38.5h-40.78l21.41-35.4,19.37-.13v-.48h23.3l25.18-41.6,61.6-.43-23.72,42.03h10.6l10.51-17.39,41.95-.29-9.97,17.68h57.13c89.41,0,155.26,67.68,155.26,163.95.03,95.62-65.8,167.03-155.26,167.03h0Z"/>
  </g>
  <g>
    <rect class="cls-1" x="34.84" y="663.54" width="471.74" height="47.65"/>
    <rect class="cls-1" x="34.84" y="846.19" width="471.74" height="47.65"/>
    <rect class="cls-1" x="34.84" y="1020.89" width="471.74" height="47.65"/>
    <rect class="cls-1" x="34.84" y="1203.54" width="471.74" height="47.65"/>
    <rect class="cls-1" x="202.24" y="750.89" width="471.74" height="47.65"/>
    <rect class="cls-1" x="202.24" y="933.54" width="471.74" height="47.65"/>
    <rect class="cls-1" x="202.24" y="1116.18" width="471.74" height="47.65"/>
    <rect class="cls-1" x="202.24" y="1290.89" width="471.74" height="47.65"/>
    <path class="cls-1" d="m1606.4,663.54h-44.45l-27.1,121.36c-1.76,7.3-3.7,16.85-5.84,28.67-2.13,11.81-3.68,21.67-4.66,29.58-1.08-8.22-2.63-18.05-4.67-29.51-2.03-11.45-3.73-19.98-5.1-25.55l-31.03-124.56h-42.7l-31.03,124.56c-1.85,6.69-3.82,16.09-5.9,28.21-2.1,12.12-3.42,21.06-4.01,26.85-2.15-16.43-5.59-35.84-10.35-58.25l-27.25-121.36h-44.45l54.36,222.35h51.29l28.71-116.51c1.27-5.17,3.05-13.82,5.39-25.93,2.34-12.11,3.79-20.91,4.36-26.39.4,4.46,1.88,13.21,4.45,26.24,2.58,13.03,4.39,21.62,5.47,25.78l28.86,116.8h51.44l54.21-222.35h-.02Zm-443.28,135c15.33-51.81,24.62-84.28,27.86-97.41.79,3.69,2.08,8.72,3.91,15.07,1.81,6.36,9.96,33.81,24.41,82.33h-56.18Zm130.33,87.34l-75.18-222.35h-55l-74.88,222.35h47.61l15.63-47.65h78.59l15.63,47.65h47.61,0Zm-261.86-222.35h-53.26v87.36h-83.7v-87.36h-45.65v222.35h45.65v-95.3h83.7v95.3h53.26v-222.35h0Z"/>
    <path class="cls-1" d="m2454.44,1163.83h38.05v46.93c-10.04,2.06-19.93,3.08-29.67,3.08-18.69,0-32.92-6.44-42.71-19.31-9.8-12.87-14.7-31.52-14.7-55.94s6.08-42.01,18.24-55.86c12.16-13.85,28.32-20.77,48.52-20.77,17.37,0,34.11,4.1,50.17,12.32l15.52-38.17c-21-9.24-42.79-13.85-65.4-13.85-36.05,0-64.25,10.16-84.58,30.48-20.35,20.31-30.53,48.62-30.53,84.94s8.76,66,26.3,85.95c17.52,19.95,42.92,29.93,76.15,29.93,13.06,0,25.84-.95,38.35-2.84s25.84-5.2,40-9.93v-116.66h-83.7v39.71h0v-.02Zm-234.08,0l52.08,87.36h48.12c-9.72-14.6-30.59-46.89-62.67-96.88,12.65-5.78,22.4-13.76,29.3-23.95,6.89-10.19,10.34-21.83,10.34-34.9,0-22.41-6.95-39.11-20.84-50.11-13.88-11-35.31-16.51-64.25-16.51h-62.34v222.35h45.65v-87.36h24.62,0Zm-24.62-103.24h14.49c15.41,0,26.78,2.35,34.12,7.09,7.35,4.71,11.03,12.64,11.03,23.8s-3.6,19.51-10.79,24.76c-7.19,5.24-18.35,7.88-33.44,7.88h-15.41v-63.53h0Zm-175-31.77v137.43c0,17.43-3.29,30.24-9.86,38.39-6.57,8.15-17.13,12.23-31.71,12.23s-25.83-4.06-32.35-12.16c-6.52-8.1-9.78-20.82-9.78-38.16v-137.73h-45.65v144.95c0,25.75,7.59,46.04,22.75,60.86,15.17,14.83,36.47,22.25,63.88,22.25,18.18,0,33.92-3.33,47.26-10,13.32-6.67,23.49-16.25,30.55-28.78,7.06-12.52,10.57-27.08,10.57-43.7v-145.57h-45.65,0Zm-281.53,127.06c27.47,0,41.22,8.86,41.22,26.56,0,9.83-3.24,17.11-9.69,21.88-6.44,4.77-16.44,7.15-29.96,7.15h-32.01v-55.59h30.44,0Zm-30.44-87.36h22.89c12.46,0,21.56,1.79,27.33,5.35,5.76,3.58,8.63,9.45,8.63,17.67,0,8.8-2.64,15.1-7.94,18.91-5.29,3.81-13.83,5.72-25.63,5.72h-25.28v-47.65h0Zm-45.65,182.64h81.01c24.49,0,43.87-5.68,58.12-17.03,14.27-11.36,21.4-27.17,21.4-47.45,0-14.3-3.02-25.76-9.1-34.37-6.08-8.63-15.97-14.5-29.69-17.65v-1.52c10.06-1.72,18.14-6.85,24.21-15.36,6.08-8.51,9.1-19.41,9.1-32.69,0-19.56-6.93-33.84-20.81-42.81-13.86-8.97-36.15-13.46-66.87-13.46h-67.37v222.35h0Zm-176.41,0l55.58-174.7h1.34c-1.19,26.75-1.84,44.2-2.01,50.77-.14,6.56-.21,12.36-.24,17.38v106.55h38.05v-230.28h-61.63l-53.59,174.7h-.88l-50.53-174.7h-61.63v230.29h38.05v-103.57c0-11.88-.87-35.59-2.61-71.13h1.23l48.34,174.7h50.55,0Zm-323.58-95.29c15.33-51.8,24.62-84.27,27.86-97.41.79,3.69,2.08,8.72,3.91,15.08,1.81,6.36,9.96,33.81,24.41,82.32h-56.18Zm130.33,95.29l-75.18-222.35h-55l-74.88,222.35h45.52l16.22-55.59h81.58l16.23,55.59h45.52Zm-261.86-222.35h-53.26v87.36h-83.7v-87.36h-45.65v222.35h45.65v-95.3h83.7v95.3h53.26v-225.04,2.69Z"/>
  </g>
  <path class="cls-1" d="m22.19,1874.68c4.16-11.19,10.14-20.05,12.18-29.73,13.82-65.7,26.3-131.69,40.34-197.35,5.38-25.16,4.01-52.14,22.03-74.28,13.79-16.94,33.38-29.76,46.1-19.91,10.61,8.22,20.93,26.13,19.71,38.6-4.13,42.04-13.41,83.58-20.85,125.29-5.4,30.32-11,60.61-16.7,91.91,149.83-44.61,297.22-88.5,441.77-131.55,8.46-46.27,16.25-94.21,26.44-141.62,3.27-15.23,11.39-30.03,19.93-43.35,10.53-16.43,27.81-19.13,45.6-13.92,17.36,5.08,24.69,17.66,21.33,35.58-6.93,36.91-14.3,73.73-21.23,110.64-2.09,11.14-3.33,22.45-5.49,37.34,24.99-5.89,46.02-12.33,67.52-15.41,15.67-2.24,32.04-.9,47.97.4,17.78,1.46,25.08,14.4,27.79,30.24,3.12,18.27-2.65,33.1-21.06,39.1-22.16,7.21-44.67,14.01-67.53,18.21-20.71,3.8-42.1,3.84-65.27,5.71-8.3,44.89-16.71,90.32-25.09,135.76-5.6,30.38-9.66,61.14-17.16,91.04-6.45,25.7-30.8,39.95-51.4,33.74-21.94-6.62-31.71-29.17-26.55-55.59,11.47-58.76,21.88-117.73,32.51-176.65.7-3.86-.39-8.05-.96-17.14-108.04,32.38-214.2,63.8-320.06,96.16-33.13,10.13-65.47,22.83-98.18,34.34-21.91,7.71-30.77,22.96-30.91,46.29-.1,17.26-2.15,35.53-8.19,51.52-11.45,30.34-44.5,39.28-72.92,21.78-1.66-41.74-1.66-83.47-1.66-127.15Z"/>
  <path class="cls-1" d="m2520.69,1808.36c-15.5,12.55-30.09,24.97-46.68,33.51-61.75,31.82-123.93,62.84-186.38,93.27-65.15,31.75-134.06,53.14-204.58,68.8-49.12,10.91-98.7,16.7-147.9-2.05-54.35-20.72-69.27-58.94-45.08-108.26,29.16-59.44,74.17-106,123.4-149.8,47.74-42.48,96.74-82.76,150.98-116.49,59.04-36.72,117.23-75.34,184.2-96.73,15.17-4.84,31.72-6.82,47.72-7.3,21.03-.63,31.39,17.35,29.78,39.05-5.28,71.25-62.55,84.01-113.99,101.36-22.54,7.6-50.41,1.27-71.5,10.86-37.44,17-74.5,37.66-106.36,63.43-46.41,37.54-88.84,80.16-131.3,122.3-13.98,13.87-24.23,32.2-33.44,49.92-6.63,12.75-6.34,24.25,13.48,29.88,30.09,8.54,58.22.65,85.84-6.35,85.71-21.72,167.37-54.81,246.41-94.29,50.2-25.08,100.41-50.17,150.02-76.39,19.28-10.19,35.98-9.8,54,2.6,1.36,12.77,1.36,26.77,1.36,42.67Z"/>
  <path class="cls-1" d="m1602.62,1447.98c13.97,39.9-2.15,72.88-37.04,78.99-18.58,3.26-37.44,5.01-55.96,8.58-42.79,8.23-85.17,19.07-128.23,25.21-38.1,5.44-52.98,21.97-57.47,62.29-8.61,77.29-26.25,153.58-39.98,230.31-11.24,62.84-21.44,125.89-34.15,188.43-2.14,10.56-14.66,19-21.19,29.62-14.18,1.19-29.56,1.19-46.86,1.19-23.02-48.87,3.92-94.94,7.59-142.25,3.46-44.64,15.77-88.57,23.74-132.89,11.32-62.91,22.28-125.89,33.24-188.87.7-4.01.09-8.24.09-17.41-28.5,5.81-55.92,10.66-82.96,17.13-28.53,6.83-57.22,13.71-84.82,23.45-17.18,6.07-31.67,19.65-48.79,26.02-30.13,11.21-56.71-2.28-63.74-29.86-4.12-16.15,8.9-41.17,31.88-50.29,31.39-12.46,64.3-21.81,97.28-29.39,118.17-27.15,236.63-53.01,354.99-79.32,27.27-6.06,54.57-12.01,80.61-19.48,22.44-1.47,46.13-1.47,71.76-1.47Z"/>
  <path class="cls-1" d="m862.66,1978.87c-13.18,8.65-25.03,19.9-38.38,22.13-33.18,5.54-38.58-12.27-36.8-37.04,2.22-30.89,8.78-61.47,13.69-92.15.52-3.24,3.35-6.14,3.71-9.36,9.05-79.71,28.37-157.59,41.71-236.53,3.03-17.95,4.36-36.29,8.79-53.87,4.68-18.55,12.88-34.99,34.28-41.28,27.05-7.95,52.57,10.23,48.32,37.73-7.71,49.89-17.42,99.48-26.15,149.21-7.93,45.12-15.23,90.36-23.62,135.4-7.74,41.52-16.56,82.85-25.55,125.77Z"/>
  <path class="cls-1" d="m1476.28,1887.47c24.7,45.94,64.87,67.17,112,76.6,48.15,9.64,95.58,5.73,142.34-10.61,30.15-10.53,63.4,10.25,60.63,37.15-.92,8.91-8.06,20.72-15.75,24.81-56.77,30.24-117.47,28.83-178.57,17.92-41.37-7.39-79.74-22.9-112.45-49.83-47.21-38.86-73.56-91.07-92.17-147.93-2.49-7.61-4.91-15.25-7.47-22.84-9.65-28.62-7.29-31.76,17.25-48.41,9.53-6.46,15.55-18.95,21.57-29.6,39.17-69.32,100.36-109.81,176.42-123.02,61.12-10.62,122.02-3.07,174.32,37.35,40.45,31.27,38.02,103.07-3.76,132.37-44.37,31.12-94.69,43.59-146.89,49.24-52.45,5.68-105.25,8.07-159.13,11.99,3.27,12.95,7.1,28.14,11.65,44.8m233.6-152.27c7.92-7.77,23.6-17.81,22.14-22.85-3.05-10.44-13.67-21.11-23.91-26.54-28.41-15.06-59.05-16.15-90.42-8.93-59.03,13.58-106.62,44.02-145.87,96.06,10.47,1.7,17.5,4.43,24.11,3.64,42.25-5,84.71-9.13,126.49-16.87,28.6-5.29,56.2-15.96,87.45-24.52Z"/>
</svg>