<?xml version="1.0" encoding="UTF-8"?>
<svg id="Ebene_1" data-name="Ebene 1" xmlns="http://www.w3.org/2000/svg" viewBox="0 0 1854.57 817.88">
  <defs>
    <style>
      .cls-1 {
        fill: #22b573;
      }

      .cls-1, .cls-2, .cls-3, .cls-4, .cls-5, .cls-6, .cls-7, .cls-8, .cls-9, .cls-10, .cls-11 {
        stroke-miterlimit: 10;
      }

      .cls-1, .cls-2, .cls-4, .cls-5, .cls-6, .cls-7, .cls-8, .cls-9, .cls-10, .cls-11 {
        stroke: #000;
      }

      .cls-12 {
        letter-spacing: 0em;
      }

      .cls-13 {
        letter-spacing: -.05em;
      }

      .cls-14 {
        letter-spacing: 0em;
      }

      .cls-2 {
        fill: #d9e021;
      }

      .cls-15 {
        letter-spacing: 0em;
      }

      .cls-16 {
        letter-spacing: 0em;
      }

      .cls-17 {
        letter-spacing: -.01em;
      }

      .cls-3 {
        stroke: #0071bc;
      }

      .cls-3, .cls-18 {
        fill: #29abe2;
      }

      .cls-19 {
        letter-spacing: 0em;
      }

      .cls-20 {
        letter-spacing: 0em;
      }

      .cls-21 {
        letter-spacing: -.02em;
      }

      .cls-4, .cls-22 {
        fill: #ccc;
      }

      .cls-23 {
        letter-spacing: 0em;
      }

      .cls-24 {
        letter-spacing: .01em;
      }

      .cls-25 {
        letter-spacing: -.02em;
      }

      .cls-26 {
        letter-spacing: -.03em;
      }

      .cls-5 {
        fill: none;
        stroke-width: 10px;
      }

      .cls-27 {
        fill: #2e3192;
      }

      .cls-28 {
        letter-spacing: 0em;
      }

      .cls-29 {
        letter-spacing: 0em;
      }

      .cls-6 {
        fill: #f15a24;
      }

      .cls-7 {
        fill: #f7931e;
      }

      .cls-30 {
        letter-spacing: -.04em;
      }

      .cls-31 {
        letter-spacing: 0em;
      }

      .cls-32 {
        letter-spacing: -.02em;
      }

      .cls-33 {
        letter-spacing: .01em;
      }

      .cls-34 {
        letter-spacing: 0em;
      }

      .cls-35 {
        fill: #0071bc;
      }

      .cls-36, .cls-37 {
        font-family: MyriadPro-Regular, 'Myriad Pro';
        font-size: 30px;
      }

      .cls-38 {
        letter-spacing: 0em;
      }

      .cls-8 {
        fill: #8cc63f;
      }

      .cls-39 {
        letter-spacing: 0em;
      }

      .cls-9, .cls-37 {
        fill: #fff;
      }

      .cls-40 {
        letter-spacing: 0em;
      }

      .cls-10 {
        fill: #c7b299;
      }

      .cls-41 {
        letter-spacing: 0em;
      }

      .cls-42 {
        letter-spacing: .02em;
      }

      .cls-43 {
        letter-spacing: 0em;
      }

      .cls-44 {
        letter-spacing: 0em;
      }

      .cls-11 {
        fill: #fbb03b;
      }

      .cls-45 {
        letter-spacing: -.01em;
      }

      .cls-46 {
        letter-spacing: .02em;
      }

      .cls-47 {
        letter-spacing: 0em;
      }

      .cls-48 {
        letter-spacing: -.01em;
      }

      .cls-49 {
        letter-spacing: -.01em;
      }

      .cls-50 {
        letter-spacing: 0em;
      }

      .cls-51 {
        letter-spacing: 0em;
      }
    </style>
  </defs>
  <rect class="cls-22" x="1606.57" y="476" width="48" height="67"/>
  <rect class="cls-9" x=".5" y="572.88" width="559.5" height="244.5"/>
  <text class="cls-36" transform="translate(208.07 606.95)"><tspan class="cls-51" x="0" y="0">A</tspan><tspan x="18.27" y="0">pplic</tspan><tspan class="cls-20" x="79.95" y="0">a</tspan><tspan x="94.29" y="0">tion</tspan></text>
  <rect class="cls-9" x=".5" y="289.88" width="559.5" height="244.5"/>
  <text class="cls-36" transform="translate(195.26 323.95)"><tspan class="cls-50" x="0" y="0">I</tspan><tspan x="7.47" y="0">nf</tspan><tspan class="cls-14" x="32.88" y="0">r</tspan><tspan x="42.54" y="0">astru</tspan><tspan class="cls-24" x="105.15" y="0">c</tspan><tspan x="118.98" y="0">tu</tspan><tspan class="cls-41" x="145.44" y="0">r</tspan><tspan x="154.95" y="0">e</tspan></text>
  <rect class="cls-9" x=".5" y=".5" width="559.5" height="244.5"/>
  <rect class="cls-27" x="76.25" y="54" width="408" height="48"/>
  <rect class="cls-27" x="76.25" y="113" width="408" height="48"/>
  <rect class="cls-27" x="76.25" y="172" width="408" height="48"/>
  <rect class="cls-35" x="76.25" y="340" width="408" height="48"/>
  <rect class="cls-35" x="76.25" y="399" width="408" height="48"/>
  <rect class="cls-35" x="76.25" y="458" width="408" height="48"/>
  <rect class="cls-18" x="76.25" y="627" width="408" height="48"/>
  <rect class="cls-18" x="76.25" y="686" width="408" height="48"/>
  <rect class="cls-18" x="76.25" y="745" width="408" height="48"/>
  <text class="cls-37" transform="translate(124 84.86)"><tspan x="0" y="0">Endpoi</tspan><tspan class="cls-44" x="88.89" y="0">n</tspan><tspan x="105.42" y="0">t and </tspan><tspan class="cls-50" x="176.1" y="0">I</tspan><tspan x="183.57" y="0">nf</tspan><tspan class="cls-14" x="208.98" y="0">r</tspan><tspan x="218.64" y="0">a </tspan><tspan class="cls-16" x="239.46" y="0">S</tspan><tspan x="254.43" y="0">ecu</tspan><tspan class="cls-15" x="299.43" y="0">r</tspan><tspan class="cls-28" x="309.36" y="0">i</tspan><tspan class="cls-47" x="316.38" y="0">t</tspan><tspan class="cls-28" x="326.57" y="0">y</tspan></text>
  <text class="cls-37" transform="translate(124 140.29)"><tspan x="0" y="0">D</tspan><tspan class="cls-44" x="19.98" y="0">a</tspan><tspan x="34.32" y="0">ta </tspan><tspan class="cls-16" x="65.07" y="0">S</tspan><tspan x="80.04" y="0">ecu</tspan><tspan class="cls-43" x="125.04" y="0">r</tspan><tspan x="134.97" y="0">i</tspan><tspan class="cls-31" x="141.99" y="0">t</tspan><tspan x="152.19" y="0">y</tspan></text>
  <text class="cls-37" transform="translate(124 201.29)"><tspan class="cls-29" x="0" y="0">A</tspan><tspan x="18.27" y="0">pplic</tspan><tspan class="cls-44" x="79.95" y="0">a</tspan><tspan class="cls-39" x="94.29" y="0">tion </tspan><tspan class="cls-16" x="150.72" y="0">S</tspan><tspan x="165.69" y="0">ecu</tspan><tspan class="cls-43" x="210.69" y="0">r</tspan><tspan x="220.62" y="0">i</tspan><tspan class="cls-31" x="227.64" y="0">t</tspan><tspan x="237.84" y="0">y</tspan></text>
  <text class="cls-37" transform="translate(124 371.29)"><tspan class="cls-26" x="0" y="0">P</tspan><tspan class="cls-39" x="15.21" y="0">ods</tspan></text>
  <text class="cls-37" transform="translate(124 427.29)"><tspan x="0" y="0">Ne</tspan><tspan class="cls-31" x="34.77" y="0">t</tspan><tspan class="cls-12" x="44.97" y="0">w</tspan><tspan x="66.75" y="0">o</tspan><tspan class="cls-43" x="83.22" y="0">r</tspan><tspan x="93.15" y="0">k</tspan></text>
  <text class="cls-37" transform="translate(124 491.29)"><tspan x="0" y="0">Nodes</tspan></text>
  <text class="cls-37" transform="translate(124 661.29)"><tspan x="0" y="0">API, </tspan><tspan class="cls-40" x="54.06" y="0">E</tspan><tspan class="cls-48" x="68.61" y="0">v</tspan><tspan x="82.74" y="0">e</tspan><tspan class="cls-44" x="97.77" y="0">n</tspan><tspan class="cls-39" x="114.3" y="0">ts</tspan></text>
  <text class="cls-37" transform="translate(124 720.29)"><tspan class="cls-33" x="0" y="0">M</tspan><tspan class="cls-28" x="24.48" y="0">ic</tspan><tspan class="cls-41" x="44.94" y="0">r</tspan><tspan x="54.45" y="0">ose</tspan><tspan class="cls-42" x="97.83" y="0">r</tspan><tspan x="108.39" y="0">vi</tspan><tspan class="cls-19" x="129.84" y="0">c</tspan><tspan x="143.1" y="0">es</tspan></text>
  <text class="cls-37" transform="translate(124 779.29)"><tspan x="0" y="0">D</tspan><tspan class="cls-44" x="19.98" y="0">a</tspan><tspan x="34.32" y="0">tabases</tspan></text>
  <text class="cls-36" transform="translate(229.63 34.57)"><tspan class="cls-16" x="0" y="0">S</tspan><tspan x="14.97" y="0">ecu</tspan><tspan class="cls-15" x="59.97" y="0">r</tspan><tspan x="69.9" y="0">i</tspan><tspan class="cls-31" x="76.92" y="0">t</tspan><tspan x="87.12" y="0">y</tspan></text>
  <g>
    <rect class="cls-35" x="794.57" y="353" width="310" height="129"/>
    <ellipse class="cls-3" cx="949.57" cy="353" rx="155" ry="46"/>
    <ellipse class="cls-35" cx="949.57" cy="482.5" rx="155" ry="41.5"/>
  </g>
  <rect class="cls-4" x="1393.07" y="220.5" width="461" height="256" rx="28" ry="28"/>
  <rect class="cls-9" x="1423.07" y="237.5" width="400" height="222" rx="28" ry="28"/>
  <rect class="cls-11" x="1469.07" y="364.5" width="10" height="68"/>
  <rect class="cls-7" x="1490.07" y="388.5" width="15" height="44"/>
  <rect class="cls-6" x="1515.07" y="329.5" width="17" height="103"/>
  <path class="cls-2" d="m1711.07,333.58h-53.75v-53.75c29.68,0,53.75,24.07,53.75,53.75Z"/>
  <path class="cls-8" d="m1711.07,333.58c0,29.69-24.07,53.75-53.75,53.75v-53.75h53.75Z"/>
  <path class="cls-10" d="m1657.32,333.58v53.75c-29.68,0-53.75-24.06-53.75-53.75h53.75Z"/>
  <path class="cls-1" d="m1650.07,263.75v53.75h-53.75c0-29.68,24.07-53.75,53.75-53.75Z"/>
  <g>
    <path d="m1572.65,395.74h1.04v7.21h3.45v.88h-4.5v-8.08Z"/>
    <path d="m1583.36,400.87c0,2.15-1.49,3.08-2.89,3.08-1.57,0-2.78-1.15-2.78-2.99,0-1.94,1.27-3.08,2.88-3.08s2.79,1.21,2.79,2.99Zm-4.61.06c0,1.27.73,2.23,1.76,2.23s1.76-.95,1.76-2.25c0-.98-.49-2.23-1.74-2.23s-1.79,1.15-1.79,2.25Z"/>
    <path d="m1584.7,399.83c0-.68-.01-1.27-.05-1.81h.92l.04,1.14h.05c.26-.78.9-1.27,1.61-1.27.12,0,.2.01.3.04v1c-.11-.02-.22-.04-.36-.04-.74,0-1.27.56-1.42,1.36-.02.14-.05.31-.05.49v3.09h-1.04v-3.99Z"/>
    <path d="m1589.09,401.11c.02,1.43.94,2.01,1.99,2.01.76,0,1.21-.13,1.61-.3l.18.76c-.37.17-1.01.36-1.93.36-1.79,0-2.85-1.18-2.85-2.93s1.03-3.13,2.72-3.13c1.89,0,2.4,1.67,2.4,2.73,0,.22-.02.38-.04.49h-4.08Zm3.09-.76c.01-.67-.28-1.71-1.46-1.71-1.07,0-1.54.98-1.62,1.71h3.08Z"/>
    <path d="m1594.51,399.58c0-.6-.01-1.09-.05-1.57h.92l.05.94h.04c.32-.55.86-1.07,1.82-1.07.79,0,1.39.48,1.64,1.16h.02c.18-.32.41-.58.65-.76.35-.26.73-.41,1.28-.41.77,0,1.91.5,1.91,2.52v3.42h-1.03v-3.29c0-1.12-.41-1.79-1.26-1.79-.6,0-1.07.44-1.25.96-.05.14-.08.34-.08.53v3.59h-1.03v-3.48c0-.92-.41-1.6-1.21-1.6-.66,0-1.14.53-1.31,1.06-.06.16-.08.34-.08.52v3.5h-1.03v-4.23Z"/>
    <path d="m1608.24,396.38c.01.36-.25.65-.67.65-.37,0-.64-.29-.64-.65s.28-.66.66-.66.65.29.65.66Zm-1.17,7.44v-5.8h1.05v5.8h-1.05Z"/>
    <path d="m1609.87,399.91c0-.74-.02-1.34-.05-1.9h.95l.05,1h.02c.43-.71,1.12-1.13,2.06-1.13,1.4,0,2.46,1.19,2.46,2.95,0,2.09-1.27,3.12-2.64,3.12-.77,0-1.44-.34-1.79-.91h-.02v3.15h-1.04v-6.28Zm1.04,1.55c0,.16.02.3.05.43.19.73.83,1.24,1.58,1.24,1.12,0,1.76-.91,1.76-2.24,0-1.16-.61-2.16-1.73-2.16-.72,0-1.39.52-1.59,1.31-.04.13-.07.29-.07.43v1Z"/>
    <path d="m1616.55,402.74c.31.2.86.42,1.39.42.77,0,1.13-.38,1.13-.86,0-.5-.3-.78-1.08-1.07-1.04-.37-1.54-.95-1.54-1.64,0-.94.76-1.7,2-1.7.59,0,1.1.17,1.43.36l-.26.77c-.23-.14-.65-.34-1.19-.34-.62,0-.97.36-.97.79,0,.48.35.7,1.1.98,1.01.38,1.52.89,1.52,1.75,0,1.02-.79,1.74-2.17,1.74-.64,0-1.22-.16-1.63-.4l.26-.8Z"/>
    <path d="m1626.31,402.24c0,.6.01,1.13.05,1.58h-.94l-.06-.95h-.02c-.28.47-.89,1.08-1.92,1.08-.91,0-2-.5-2-2.54v-3.39h1.05v3.21c0,1.1.34,1.85,1.3,1.85.71,0,1.2-.49,1.39-.96.06-.16.1-.35.1-.54v-3.56h1.05v4.22Z"/>
    <path d="m1628.06,399.58c0-.6-.01-1.09-.05-1.57h.92l.05.94h.04c.32-.55.86-1.07,1.82-1.07.79,0,1.39.48,1.64,1.16h.02c.18-.32.41-.58.65-.76.35-.26.73-.41,1.28-.41.77,0,1.91.5,1.91,2.52v3.42h-1.03v-3.29c0-1.12-.41-1.79-1.26-1.79-.6,0-1.07.44-1.25.96-.05.14-.08.34-.08.53v3.59h-1.03v-3.48c0-.92-.41-1.6-1.21-1.6-.66,0-1.14.53-1.31,1.06-.06.16-.08.34-.08.52v3.5h-1.03v-4.23Z"/>
    <path d="m1645.63,395.3v7.02c0,.52.01,1.1.05,1.5h-.95l-.05-1.01h-.02c-.32.65-1.03,1.14-1.98,1.14-1.4,0-2.48-1.19-2.48-2.95-.01-1.93,1.19-3.12,2.6-3.12.89,0,1.49.42,1.75.89h.02v-3.47h1.06Zm-1.06,5.07c0-.13-.01-.31-.05-.44-.16-.67-.73-1.22-1.52-1.22-1.09,0-1.74.96-1.74,2.24,0,1.18.58,2.15,1.71,2.15.71,0,1.36-.47,1.55-1.26.04-.14.05-.29.05-.46v-1.01Z"/>
    <path d="m1652.63,400.87c0,2.15-1.49,3.08-2.89,3.08-1.57,0-2.78-1.15-2.78-2.99,0-1.94,1.27-3.08,2.88-3.08s2.79,1.21,2.79,2.99Zm-4.61.06c0,1.27.73,2.23,1.76,2.23s1.76-.95,1.76-2.25c0-.98-.49-2.23-1.74-2.23s-1.79,1.15-1.79,2.25Z"/>
    <path d="m1653.97,395.3h1.05v8.52h-1.05v-8.52Z"/>
    <path d="m1662.05,400.87c0,2.15-1.49,3.08-2.89,3.08-1.57,0-2.78-1.15-2.78-2.99,0-1.94,1.27-3.08,2.88-3.08s2.79,1.21,2.79,2.99Zm-4.61.06c0,1.27.73,2.23,1.76,2.23s1.76-.95,1.76-2.25c0-.98-.49-2.23-1.74-2.23s-1.79,1.15-1.79,2.25Z"/>
    <path d="m1663.39,399.83c0-.68-.01-1.27-.05-1.81h.92l.04,1.14h.05c.26-.78.9-1.27,1.61-1.27.12,0,.2.01.3.04v1c-.11-.02-.22-.04-.36-.04-.74,0-1.27.56-1.42,1.36-.02.14-.05.31-.05.49v3.09h-1.04v-3.99Z"/>
    <path d="m1669.71,402.74c.31.2.86.42,1.39.42.77,0,1.13-.38,1.13-.86,0-.5-.3-.78-1.08-1.07-1.04-.37-1.54-.95-1.54-1.64,0-.94.76-1.7,2-1.7.59,0,1.1.17,1.43.36l-.26.77c-.23-.14-.65-.34-1.19-.34-.62,0-.97.36-.97.79,0,.48.35.7,1.1.98,1.01.38,1.52.89,1.52,1.75,0,1.02-.79,1.74-2.17,1.74-.64,0-1.22-.16-1.63-.4l.26-.8Z"/>
    <path d="m1675.78,396.38c.01.36-.25.65-.67.65-.37,0-.64-.29-.64-.65s.28-.66.66-.66.65.29.65.66Zm-1.17,7.44v-5.8h1.05v5.8h-1.05Z"/>
    <path d="m1678.69,396.35v1.67h1.51v.8h-1.51v3.13c0,.72.2,1.13.79,1.13.28,0,.48-.04.61-.07l.05.79c-.2.08-.53.14-.94.14-.49,0-.89-.16-1.14-.44-.3-.31-.41-.83-.41-1.51v-3.17h-.9v-.8h.9v-1.39l1.03-.28Z"/>
    <path d="m1687.15,403.82l-.08-.73h-.04c-.32.46-.95.86-1.78.86-1.17,0-1.77-.83-1.77-1.67,0-1.4,1.25-2.17,3.49-2.16v-.12c0-.48-.13-1.34-1.32-1.34-.54,0-1.1.17-1.51.43l-.24-.7c.48-.31,1.17-.52,1.91-.52,1.78,0,2.21,1.21,2.21,2.37v2.17c0,.5.02,1,.1,1.39h-.96Zm-.16-2.96c-1.15-.02-2.46.18-2.46,1.31,0,.68.46,1.01,1,1.01.76,0,1.24-.48,1.4-.97.04-.11.06-.23.06-.34v-1.01Z"/>
    <path d="m1689.72,399.58c0-.6-.01-1.09-.05-1.57h.92l.05.94h.04c.32-.55.86-1.07,1.82-1.07.79,0,1.39.48,1.64,1.16h.02c.18-.32.41-.58.65-.76.35-.26.73-.41,1.28-.41.77,0,1.91.5,1.91,2.52v3.42h-1.03v-3.29c0-1.12-.41-1.79-1.26-1.79-.6,0-1.07.44-1.25.96-.05.14-.08.34-.08.53v3.59h-1.03v-3.48c0-.92-.41-1.6-1.21-1.6-.66,0-1.14.53-1.31,1.06-.06.16-.08.34-.08.52v3.5h-1.03v-4.23Z"/>
    <path d="m1700.31,401.11c.02,1.43.94,2.01,1.99,2.01.76,0,1.21-.13,1.61-.3l.18.76c-.37.17-1.01.36-1.93.36-1.79,0-2.85-1.18-2.85-2.93s1.03-3.13,2.72-3.13c1.89,0,2.4,1.67,2.4,2.73,0,.22-.02.38-.04.49h-4.08Zm3.09-.76c.01-.67-.28-1.71-1.46-1.71-1.07,0-1.54.98-1.62,1.71h3.08Z"/>
    <path d="m1707.01,396.35v1.67h1.51v.8h-1.51v3.13c0,.72.2,1.13.79,1.13.28,0,.48-.04.61-.07l.05.79c-.2.08-.53.14-.94.14-.49,0-.89-.16-1.14-.44-.3-.31-.41-.83-.41-1.51v-3.17h-.9v-.8h.9v-1.39l1.03-.28Z"/>
    <path d="m1708.99,405.29c.26-.71.59-1.99.72-2.87l1.18-.12c-.28,1.02-.8,2.35-1.14,2.91l-.76.07Z"/>
    <path d="m1718.84,403.6c-.28.14-.89.34-1.67.34-1.75,0-2.89-1.19-2.89-2.96s1.22-3.08,3.12-3.08c.62,0,1.17.16,1.46.3l-.24.82c-.25-.14-.65-.28-1.22-.28-1.33,0-2.05.98-2.05,2.19,0,1.34.86,2.17,2.01,2.17.6,0,1-.16,1.29-.29l.18.79Z"/>
    <path d="m1725.26,400.87c0,2.15-1.49,3.08-2.89,3.08-1.57,0-2.78-1.15-2.78-2.99,0-1.94,1.27-3.08,2.88-3.08s2.79,1.21,2.79,2.99Zm-4.61.06c0,1.27.73,2.23,1.76,2.23s1.76-.95,1.76-2.25c0-.98-.49-2.23-1.74-2.23s-1.79,1.15-1.79,2.25Z"/>
    <path d="m1726.59,399.58c0-.6-.01-1.09-.05-1.57h.94l.06.96h.02c.29-.55.96-1.09,1.92-1.09.8,0,2.05.48,2.05,2.47v3.47h-1.05v-3.35c0-.94-.35-1.71-1.34-1.71-.7,0-1.24.49-1.42,1.08-.05.13-.07.31-.07.49v3.49h-1.05v-4.23Z"/>
    <path d="m1733.11,402.74c.31.2.86.42,1.39.42.77,0,1.13-.38,1.13-.86,0-.5-.3-.78-1.08-1.07-1.04-.37-1.54-.95-1.54-1.64,0-.94.76-1.7,2-1.7.59,0,1.1.17,1.43.36l-.26.77c-.23-.14-.65-.34-1.19-.34-.62,0-.97.36-.97.79,0,.48.35.7,1.1.98,1.01.38,1.52.89,1.52,1.75,0,1.02-.79,1.74-2.17,1.74-.64,0-1.22-.16-1.63-.4l.26-.8Z"/>
    <path d="m1738.59,401.11c.02,1.43.94,2.01,1.99,2.01.76,0,1.21-.13,1.61-.3l.18.76c-.37.17-1.01.36-1.93.36-1.79,0-2.85-1.18-2.85-2.93s1.03-3.13,2.72-3.13c1.89,0,2.4,1.67,2.4,2.73,0,.22-.02.38-.04.49h-4.08Zm3.09-.76c.01-.67-.28-1.71-1.46-1.71-1.07,0-1.54.98-1.62,1.71h3.08Z"/>
    <path d="m1748.15,403.6c-.28.14-.89.34-1.67.34-1.75,0-2.89-1.19-2.89-2.96s1.22-3.08,3.12-3.08c.62,0,1.17.16,1.46.3l-.24.82c-.25-.14-.65-.28-1.22-.28-1.33,0-2.05.98-2.05,2.19,0,1.34.86,2.17,2.01,2.17.6,0,1-.16,1.29-.29l.18.79Z"/>
    <path d="m1750.82,396.35v1.67h1.51v.8h-1.51v3.13c0,.72.2,1.13.79,1.13.28,0,.48-.04.61-.07l.05.79c-.2.08-.53.14-.94.14-.49,0-.89-.16-1.14-.44-.3-.31-.41-.83-.41-1.51v-3.17h-.9v-.8h.9v-1.39l1.03-.28Z"/>
    <path d="m1754.03,401.11c.02,1.43.94,2.01,1.99,2.01.76,0,1.21-.13,1.61-.3l.18.76c-.37.17-1.01.36-1.93.36-1.79,0-2.85-1.18-2.85-2.93s1.03-3.13,2.72-3.13c1.89,0,2.4,1.67,2.4,2.73,0,.22-.02.38-.04.49h-4.08Zm3.09-.76c.01-.67-.28-1.71-1.46-1.71-1.07,0-1.54.98-1.62,1.71h3.08Z"/>
    <path d="m1761.91,400.19v.78h-2.96v-.78h2.96Z"/>
    <path d="m1573.88,410.75v1.67h1.51v.8h-1.51v3.13c0,.72.2,1.13.79,1.13.28,0,.48-.04.61-.07l.05.79c-.2.08-.53.14-.94.14-.49,0-.89-.16-1.14-.44-.3-.31-.41-.83-.41-1.51v-3.17h-.9v-.8h.9v-1.39l1.03-.28Z"/>
    <path d="m1581.44,416.64c0,.6.01,1.13.05,1.58h-.94l-.06-.95h-.02c-.28.47-.89,1.08-1.92,1.08-.91,0-2-.5-2-2.54v-3.39h1.05v3.21c0,1.1.34,1.85,1.3,1.85.71,0,1.2-.49,1.39-.96.06-.16.1-.35.1-.54v-3.56h1.05v4.22Z"/>
    <path d="m1583.78,415.51c.02,1.43.94,2.01,1.99,2.01.76,0,1.21-.13,1.61-.3l.18.76c-.37.17-1.01.36-1.93.36-1.79,0-2.85-1.18-2.85-2.93s1.03-3.13,2.72-3.13c1.89,0,2.4,1.67,2.4,2.73,0,.22-.02.38-.04.49h-4.08Zm3.09-.76c.01-.67-.28-1.71-1.46-1.71-1.07,0-1.54.98-1.62,1.71h3.08Z"/>
    <path d="m1589.21,414.23c0-.68-.01-1.27-.05-1.81h.92l.04,1.14h.05c.26-.78.9-1.27,1.61-1.27.12,0,.2.01.3.04v1c-.11-.02-.22-.04-.36-.04-.74,0-1.27.56-1.42,1.36-.02.14-.05.31-.05.49v3.09h-1.04v-3.99Z"/>
    <path d="m1598.89,418.22l-.08-.73h-.04c-.32.46-.95.86-1.78.86-1.17,0-1.77-.83-1.77-1.67,0-1.4,1.25-2.17,3.49-2.16v-.12c0-.48-.13-1.34-1.32-1.34-.54,0-1.1.17-1.51.43l-.24-.7c.48-.31,1.17-.52,1.91-.52,1.78,0,2.21,1.21,2.21,2.37v2.17c0,.5.02,1,.1,1.39h-.96Zm-.16-2.96c-1.15-.02-2.46.18-2.46,1.31,0,.68.46,1.01,1,1.01.76,0,1.24-.48,1.4-.97.04-.11.06-.23.06-.34v-1.01Z"/>
    <path d="m1606.47,409.7v7.02c0,.52.01,1.1.05,1.5h-.95l-.05-1.01h-.02c-.32.65-1.03,1.14-1.98,1.14-1.4,0-2.48-1.19-2.48-2.95-.01-1.93,1.19-3.12,2.6-3.12.89,0,1.49.42,1.75.89h.02v-3.47h1.06Zm-1.06,5.07c0-.13-.01-.31-.05-.44-.16-.67-.73-1.22-1.52-1.22-1.09,0-1.74.96-1.74,2.24,0,1.18.58,2.15,1.71,2.15.71,0,1.36-.47,1.55-1.26.04-.14.05-.29.05-.46v-1.01Z"/>
    <path d="m1609.4,410.78c.01.36-.25.65-.67.65-.37,0-.64-.29-.64-.65s.28-.66.66-.66.65.29.65.66Zm-1.17,7.44v-5.8h1.05v5.8h-1.05Z"/>
    <path d="m1611.03,414.31c0-.74-.02-1.34-.05-1.9h.95l.05,1h.02c.43-.71,1.12-1.13,2.06-1.13,1.4,0,2.46,1.19,2.46,2.95,0,2.09-1.27,3.12-2.64,3.12-.77,0-1.44-.34-1.79-.91h-.02v3.15h-1.04v-6.28Zm1.04,1.55c0,.16.02.3.05.43.19.73.83,1.24,1.58,1.24,1.12,0,1.76-.91,1.76-2.24,0-1.16-.61-2.16-1.73-2.16-.72,0-1.39.52-1.59,1.31-.04.13-.07.29-.07.43v1Z"/>
    <path d="m1619.04,410.78c.01.36-.25.65-.67.65-.37,0-.64-.29-.64-.65s.28-.66.66-.66.65.29.65.66Zm-1.17,7.44v-5.8h1.05v5.8h-1.05Z"/>
    <path d="m1620.53,417.14c.31.2.86.42,1.39.42.77,0,1.13-.38,1.13-.86,0-.5-.3-.78-1.08-1.07-1.04-.37-1.54-.95-1.54-1.64,0-.94.76-1.7,2-1.7.59,0,1.1.17,1.43.36l-.26.77c-.23-.14-.65-.34-1.19-.34-.62,0-.97.36-.97.79,0,.48.35.7,1.1.98,1.01.38,1.52.89,1.52,1.75,0,1.02-.79,1.74-2.17,1.74-.64,0-1.22-.16-1.63-.4l.26-.8Z"/>
    <path d="m1629.56,418c-.28.14-.89.34-1.67.34-1.75,0-2.89-1.19-2.89-2.96s1.22-3.08,3.12-3.08c.62,0,1.17.16,1.46.3l-.24.82c-.25-.14-.65-.28-1.22-.28-1.33,0-2.05.98-2.05,2.19,0,1.34.86,2.17,2.01,2.17.6,0,1-.16,1.29-.29l.18.79Z"/>
    <path d="m1631.97,410.78c.01.36-.25.65-.67.65-.37,0-.64-.29-.64-.65s.28-.66.66-.66.65.29.65.66Zm-1.17,7.44v-5.8h1.05v5.8h-1.05Z"/>
    <path d="m1633.61,413.98c0-.6-.01-1.09-.05-1.57h.94l.06.96h.02c.29-.55.96-1.09,1.92-1.09.8,0,2.05.48,2.05,2.47v3.47h-1.05v-3.35c0-.94-.35-1.71-1.34-1.71-.7,0-1.24.49-1.42,1.08-.05.13-.07.31-.07.49v3.49h-1.05v-4.23Z"/>
    <path d="m1645.27,412.41c-.02.42-.05.89-.05,1.6v3.37c0,1.33-.26,2.15-.83,2.65-.56.53-1.38.7-2.11.7s-1.46-.17-1.93-.48l.26-.8c.38.24.98.46,1.7.46,1.08,0,1.87-.56,1.87-2.03v-.65h-.02c-.32.54-.95.97-1.85.97-1.44,0-2.47-1.22-2.47-2.83,0-1.97,1.28-3.08,2.61-3.08,1.01,0,1.56.53,1.81,1.01h.02l.05-.88h.92Zm-1.09,2.29c0-.18-.01-.34-.06-.48-.19-.61-.71-1.12-1.48-1.12-1.01,0-1.73.85-1.73,2.19,0,1.14.58,2.09,1.71,2.09.65,0,1.24-.41,1.46-1.08.06-.18.08-.38.08-.56v-1.04Z"/>
    <path d="m1650.1,415.51c.02,1.43.94,2.01,1.99,2.01.76,0,1.21-.13,1.61-.3l.18.76c-.37.17-1.01.36-1.93.36-1.79,0-2.85-1.18-2.85-2.93s1.03-3.13,2.72-3.13c1.89,0,2.4,1.67,2.4,2.73,0,.22-.02.38-.04.49h-4.08Zm3.09-.76c.01-.67-.28-1.71-1.46-1.71-1.07,0-1.54.98-1.62,1.71h3.08Z"/>
    <path d="m1655.53,409.7h1.05v8.52h-1.05v-8.52Z"/>
    <path d="m1659.54,410.78c.01.36-.25.65-.67.65-.37,0-.64-.29-.64-.65s.28-.66.66-.66.65.29.65.66Zm-1.17,7.44v-5.8h1.05v5.8h-1.05Z"/>
    <path d="m1662.44,410.75v1.67h1.51v.8h-1.51v3.13c0,.72.2,1.13.79,1.13.28,0,.48-.04.61-.07l.05.79c-.2.08-.53.14-.94.14-.49,0-.89-.16-1.14-.44-.3-.31-.41-.83-.41-1.51v-3.17h-.9v-.8h.9v-1.39l1.03-.28Z"/>
    <path d="m1664.42,419.69c.26-.71.59-1.99.72-2.87l1.18-.12c-.28,1.02-.8,2.35-1.14,2.91l-.76.07Z"/>
    <path d="m1669.99,417.14c.31.2.86.42,1.39.42.77,0,1.13-.38,1.13-.86,0-.5-.3-.78-1.08-1.07-1.04-.37-1.54-.95-1.54-1.64,0-.94.76-1.7,2-1.7.59,0,1.1.17,1.43.36l-.26.77c-.23-.14-.65-.34-1.19-.34-.62,0-.97.36-.97.79,0,.48.35.7,1.1.98,1.01.38,1.52.89,1.52,1.75,0,1.02-.79,1.74-2.17,1.74-.64,0-1.22-.16-1.63-.4l.26-.8Z"/>
    <path d="m1675.47,415.51c.02,1.43.94,2.01,1.99,2.01.76,0,1.21-.13,1.61-.3l.18.76c-.37.17-1.01.36-1.93.36-1.79,0-2.85-1.18-2.85-2.93s1.03-3.13,2.72-3.13c1.89,0,2.4,1.67,2.4,2.73,0,.22-.02.38-.04.49h-4.08Zm3.09-.76c.01-.67-.28-1.71-1.46-1.71-1.07,0-1.54.98-1.62,1.71h3.08Z"/>
    <path d="m1685.91,409.7v7.02c0,.52.01,1.1.05,1.5h-.95l-.05-1.01h-.02c-.32.65-1.03,1.14-1.98,1.14-1.4,0-2.48-1.19-2.48-2.95-.01-1.93,1.19-3.12,2.6-3.12.89,0,1.49.42,1.75.89h.02v-3.47h1.06Zm-1.06,5.07c0-.13-.01-.31-.05-.44-.16-.67-.73-1.22-1.52-1.22-1.09,0-1.74.96-1.74,2.24,0,1.18.58,2.15,1.71,2.15.71,0,1.36-.47,1.55-1.26.04-.14.05-.29.05-.46v-1.01Z"/>
    <path d="m1695.22,409.7v7.02c0,.52.01,1.1.05,1.5h-.95l-.05-1.01h-.02c-.32.65-1.03,1.14-1.98,1.14-1.4,0-2.48-1.19-2.48-2.95-.01-1.93,1.19-3.12,2.6-3.12.89,0,1.49.42,1.75.89h.02v-3.47h1.06Zm-1.06,5.07c0-.13-.01-.31-.05-.44-.16-.67-.73-1.22-1.52-1.22-1.09,0-1.74.96-1.74,2.24,0,1.18.58,2.15,1.71,2.15.71,0,1.36-.47,1.55-1.26.04-.14.05-.29.05-.46v-1.01Z"/>
    <path d="m1698.15,410.78c.01.36-.25.65-.67.65-.37,0-.64-.29-.64-.65s.28-.66.66-.66.65.29.65.66Zm-1.17,7.44v-5.8h1.05v5.8h-1.05Z"/>
    <path d="m1703,418.22l-.08-.73h-.04c-.32.46-.95.86-1.78.86-1.17,0-1.77-.83-1.77-1.67,0-1.4,1.25-2.17,3.49-2.16v-.12c0-.48-.13-1.34-1.32-1.34-.54,0-1.1.17-1.51.43l-.24-.7c.48-.31,1.17-.52,1.91-.52,1.78,0,2.21,1.21,2.21,2.37v2.17c0,.5.02,1,.1,1.39h-.96Zm-.16-2.96c-1.15-.02-2.46.18-2.46,1.31,0,.68.46,1.01,1,1.01.76,0,1.24-.48,1.4-.97.04-.11.06-.23.06-.34v-1.01Z"/>
    <path d="m1705.57,413.98c0-.6-.01-1.09-.05-1.57h.92l.05.94h.04c.32-.55.86-1.07,1.82-1.07.79,0,1.39.48,1.64,1.16h.02c.18-.32.41-.58.65-.76.35-.26.73-.41,1.28-.41.77,0,1.91.5,1.91,2.52v3.42h-1.03v-3.29c0-1.12-.41-1.79-1.26-1.79-.6,0-1.07.44-1.25.96-.05.14-.08.34-.08.53v3.59h-1.03v-3.48c0-.92-.41-1.6-1.21-1.6-.66,0-1.14.53-1.31,1.06-.06.16-.08.34-.08.52v3.5h-1.03v-4.23Z"/>
    <path d="m1572.61,428.38c0-.6-.01-1.09-.05-1.57h.94l.06.96h.02c.29-.55.96-1.09,1.92-1.09.8,0,2.05.48,2.05,2.47v3.47h-1.05v-3.35c0-.94-.35-1.71-1.34-1.71-.7,0-1.24.49-1.42,1.08-.05.13-.07.31-.07.49v3.49h-1.05v-4.23Z"/>
    <path d="m1584.52,429.67c0,2.15-1.49,3.08-2.89,3.08-1.57,0-2.78-1.15-2.78-2.99,0-1.94,1.27-3.08,2.88-3.08s2.79,1.21,2.79,2.99Zm-4.61.06c0,1.27.73,2.23,1.76,2.23s1.76-.95,1.76-2.25c0-.98-.49-2.23-1.74-2.23s-1.79,1.15-1.79,2.25Z"/>
    <path d="m1585.86,428.38c0-.6-.01-1.09-.05-1.57h.94l.06.96h.02c.29-.55.96-1.09,1.92-1.09.8,0,2.05.48,2.05,2.47v3.47h-1.05v-3.35c0-.94-.35-1.71-1.34-1.71-.7,0-1.24.49-1.42,1.08-.05.13-.07.31-.07.49v3.49h-1.05v-4.23Z"/>
    <path d="m1597.38,431.04c0,.6.01,1.13.05,1.58h-.94l-.06-.95h-.02c-.28.47-.89,1.08-1.92,1.08-.91,0-2-.5-2-2.54v-3.39h1.05v3.21c0,1.1.34,1.85,1.3,1.85.71,0,1.2-.49,1.39-.96.06-.16.1-.35.1-.54v-3.56h1.05v4.22Z"/>
    <path d="m1599.13,428.38c0-.6-.01-1.09-.05-1.57h.92l.05.94h.04c.32-.55.86-1.07,1.82-1.07.79,0,1.39.48,1.64,1.16h.02c.18-.32.41-.58.65-.76.35-.26.73-.41,1.28-.41.77,0,1.91.5,1.91,2.52v3.42h-1.03v-3.29c0-1.12-.41-1.79-1.26-1.79-.6,0-1.07.44-1.25.96-.05.14-.08.34-.08.53v3.59h-1.03v-3.48c0-.92-.41-1.6-1.21-1.6-.66,0-1.14.53-1.31,1.06-.06.16-.08.34-.08.52v3.5h-1.03v-4.23Z"/>
    <path d="m1609.14,428.38c0-.6-.01-1.09-.05-1.57h.92l.05.94h.04c.32-.55.86-1.07,1.82-1.07.79,0,1.39.48,1.64,1.16h.02c.18-.32.41-.58.65-.76.35-.26.73-.41,1.28-.41.77,0,1.91.5,1.91,2.52v3.42h-1.03v-3.29c0-1.12-.41-1.79-1.26-1.79-.6,0-1.07.44-1.25.96-.05.14-.08.34-.08.53v3.59h-1.03v-3.48c0-.92-.41-1.6-1.21-1.6-.66,0-1.14.53-1.31,1.06-.06.16-.08.34-.08.52v3.5h-1.03v-4.23Z"/>
    <path d="m1619.37,426.81l1.27,3.43c.13.38.28.84.37,1.19h.02c.11-.35.23-.79.37-1.21l1.15-3.41h1.12l-1.58,4.14c-.75,1.99-1.27,3.01-1.99,3.63-.52.46-1.03.64-1.3.68l-.26-.89c.26-.08.61-.25.92-.52.29-.23.65-.64.89-1.18.05-.11.08-.19.08-.25s-.02-.14-.07-.28l-2.15-5.35h1.15Z"/>
    <path d="m1627.19,428.38c0-.6-.01-1.09-.05-1.57h.94l.06.96h.02c.29-.55.96-1.09,1.92-1.09.8,0,2.05.48,2.05,2.47v3.47h-1.05v-3.35c0-.94-.35-1.71-1.34-1.71-.7,0-1.24.49-1.42,1.08-.05.13-.07.31-.07.49v3.49h-1.05v-4.23Z"/>
    <path d="m1635.02,425.18c.01.36-.25.65-.67.65-.37,0-.64-.29-.64-.65s.28-.66.66-.66.65.29.65.66Zm-1.17,7.44v-5.8h1.05v5.8h-1.05Z"/>
    <path d="m1636.61,432.62c.02-.4.05-.98.05-1.5v-7.02h1.04v3.65h.02c.37-.65,1.04-1.07,1.98-1.07,1.44,0,2.46,1.2,2.45,2.96,0,2.07-1.31,3.11-2.6,3.11-.84,0-1.51-.32-1.94-1.09h-.04l-.05.96h-.91Zm1.09-2.33c0,.13.02.26.05.38.2.73.82,1.24,1.58,1.24,1.1,0,1.76-.9,1.76-2.23,0-1.16-.6-2.16-1.73-2.16-.72,0-1.39.49-1.61,1.3-.02.12-.06.26-.06.43v1.04Z"/>
    <path d="m1643.48,424.1h1.05v3.62h.02c.17-.3.43-.56.76-.74.31-.18.68-.3,1.08-.3.78,0,2.03.48,2.03,2.48v3.45h-1.05v-3.33c0-.94-.35-1.73-1.34-1.73-.68,0-1.22.48-1.42,1.06-.06.14-.07.3-.07.5v3.5h-1.05v-8.52Z"/>
    <path d="m1653.27,429.91c.02,1.43.94,2.01,1.99,2.01.76,0,1.21-.13,1.61-.3l.18.76c-.37.17-1.01.36-1.93.36-1.79,0-2.85-1.18-2.85-2.93s1.03-3.13,2.72-3.13c1.89,0,2.4,1.67,2.4,2.73,0,.22-.02.38-.04.49h-4.08Zm3.09-.76c.01-.67-.28-1.71-1.46-1.71-1.07,0-1.54.98-1.62,1.71h3.08Z"/>
    <path d="m1663.56,431.04c0,.6.01,1.13.05,1.58h-.94l-.06-.95h-.02c-.28.47-.89,1.08-1.92,1.08-.91,0-2-.5-2-2.54v-3.39h1.05v3.21c0,1.1.34,1.85,1.3,1.85.71,0,1.2-.49,1.39-.96.06-.16.1-.35.1-.54v-3.56h1.05v4.22Z"/>
    <path d="m1666.49,425.18c.01.36-.25.65-.67.65-.37,0-.64-.29-.64-.65s.28-.66.66-.66.65.29.65.66Zm-1.17,7.44v-5.8h1.05v5.8h-1.05Z"/>
    <path d="m1667.97,431.54c.31.2.86.42,1.39.42.77,0,1.13-.38,1.13-.86,0-.5-.3-.78-1.08-1.07-1.04-.37-1.54-.95-1.54-1.64,0-.94.76-1.7,2-1.7.59,0,1.1.17,1.43.36l-.26.77c-.23-.14-.65-.34-1.19-.34-.62,0-.97.36-.97.79,0,.48.35.7,1.1.98,1.01.38,1.52.89,1.52,1.75,0,1.02-.79,1.74-2.17,1.74-.64,0-1.22-.16-1.63-.4l.26-.8Z"/>
    <path d="m1672.87,428.38c0-.6-.01-1.09-.05-1.57h.92l.05.94h.04c.32-.55.86-1.07,1.82-1.07.79,0,1.39.48,1.64,1.16h.02c.18-.32.41-.58.65-.76.35-.26.73-.41,1.28-.41.77,0,1.91.5,1.91,2.52v3.42h-1.03v-3.29c0-1.12-.41-1.79-1.26-1.79-.6,0-1.07.44-1.25.96-.05.14-.08.34-.08.53v3.59h-1.03v-3.48c0-.92-.41-1.6-1.21-1.6-.66,0-1.14.53-1.31,1.06-.06.16-.08.34-.08.52v3.5h-1.03v-4.23Z"/>
    <path d="m1688.13,429.67c0,2.15-1.49,3.08-2.89,3.08-1.57,0-2.78-1.15-2.78-2.99,0-1.94,1.27-3.08,2.88-3.08s2.79,1.21,2.79,2.99Zm-4.61.06c0,1.27.73,2.23,1.76,2.23s1.76-.95,1.76-2.25c0-.98-.49-2.23-1.74-2.23s-1.79,1.15-1.79,2.25Z"/>
    <path d="m1694.48,424.1v7.02c0,.52.01,1.1.05,1.5h-.95l-.05-1.01h-.02c-.32.65-1.03,1.14-1.98,1.14-1.4,0-2.48-1.19-2.48-2.95-.01-1.93,1.19-3.12,2.6-3.12.89,0,1.49.42,1.75.89h.02v-3.47h1.06Zm-1.06,5.07c0-.13-.01-.31-.05-.44-.16-.67-.73-1.22-1.52-1.22-1.09,0-1.74.96-1.74,2.24,0,1.18.58,2.15,1.71,2.15.71,0,1.36-.47,1.55-1.26.04-.14.05-.29.05-.46v-1.01Z"/>
    <path d="m1700.05,425.15v1.67h1.51v.8h-1.51v3.13c0,.72.2,1.13.79,1.13.28,0,.48-.04.61-.07l.05.79c-.2.08-.53.14-.94.14-.49,0-.89-.16-1.14-.44-.3-.31-.41-.83-.41-1.51v-3.17h-.9v-.8h.9v-1.39l1.03-.28Z"/>
    <path d="m1703.92,425.18c.01.36-.25.65-.67.65-.37,0-.64-.29-.64-.65s.28-.66.66-.66.65.29.65.66Zm-1.17,7.44v-5.8h1.05v5.8h-1.05Z"/>
    <path d="m1705.56,428.38c0-.6-.01-1.09-.05-1.57h.94l.06.96h.02c.29-.55.96-1.09,1.92-1.09.8,0,2.05.48,2.05,2.47v3.47h-1.05v-3.35c0-.94-.35-1.71-1.34-1.71-.7,0-1.24.49-1.42,1.08-.05.13-.07.31-.07.49v3.49h-1.05v-4.23Z"/>
    <path d="m1716.36,432.4c-.28.14-.89.34-1.67.34-1.75,0-2.89-1.19-2.89-2.96s1.22-3.08,3.12-3.08c.62,0,1.17.16,1.46.3l-.24.82c-.25-.14-.65-.28-1.22-.28-1.33,0-2.05.98-2.05,2.19,0,1.34.86,2.17,2.01,2.17.6,0,1-.16,1.29-.29l.18.79Z"/>
    <path d="m1718.77,425.18c.01.36-.25.65-.67.65-.37,0-.64-.29-.64-.65s.28-.66.66-.66.65.29.65.66Zm-1.17,7.44v-5.8h1.05v5.8h-1.05Z"/>
    <path d="m1725.41,424.1v7.02c0,.52.01,1.1.05,1.5h-.95l-.05-1.01h-.02c-.32.65-1.03,1.14-1.98,1.14-1.4,0-2.48-1.19-2.48-2.95-.01-1.93,1.19-3.12,2.6-3.12.89,0,1.49.42,1.75.89h.02v-3.47h1.06Zm-1.06,5.07c0-.13-.01-.31-.05-.44-.16-.67-.73-1.22-1.52-1.22-1.09,0-1.74.96-1.74,2.24,0,1.18.58,2.15,1.71,2.15.71,0,1.36-.47,1.55-1.26.04-.14.05-.29.05-.46v-1.01Z"/>
    <path d="m1732.03,431.04c0,.6.01,1.13.05,1.58h-.94l-.06-.95h-.02c-.28.47-.89,1.08-1.92,1.08-.91,0-2-.5-2-2.54v-3.39h1.05v3.21c0,1.1.34,1.85,1.3,1.85.71,0,1.2-.49,1.39-.96.06-.16.1-.35.1-.54v-3.56h1.05v4.22Z"/>
    <path d="m1733.78,428.38c0-.6-.01-1.09-.05-1.57h.94l.06.96h.02c.29-.55.96-1.09,1.92-1.09.8,0,2.05.48,2.05,2.47v3.47h-1.05v-3.35c0-.94-.35-1.71-1.34-1.71-.7,0-1.24.49-1.42,1.08-.05.13-.07.31-.07.49v3.49h-1.05v-4.23Z"/>
    <path d="m1741.66,425.15v1.67h1.51v.8h-1.51v3.13c0,.72.2,1.13.79,1.13.28,0,.48-.04.61-.07l.05.79c-.2.08-.53.14-.94.14-.49,0-.89-.16-1.14-.44-.3-.31-.41-.83-.41-1.51v-3.17h-.9v-.8h.9v-1.39l1.03-.28Z"/>
    <path d="m1751.77,431.04c0,.6.01,1.13.05,1.58h-.94l-.06-.95h-.02c-.28.47-.89,1.08-1.92,1.08-.91,0-2-.5-2-2.54v-3.39h1.05v3.21c0,1.1.34,1.85,1.3,1.85.71,0,1.2-.49,1.39-.96.06-.16.1-.35.1-.54v-3.56h1.05v4.22Z"/>
    <path d="m1754.79,425.15v1.67h1.51v.8h-1.51v3.13c0,.72.2,1.13.79,1.13.28,0,.48-.04.61-.07l.05.79c-.2.08-.53.14-.94.14-.49,0-.89-.16-1.14-.44-.3-.31-.41-.83-.41-1.51v-3.17h-.9v-.8h.9v-1.39l1.03-.28Z"/>
    <path d="m1572.61,438.5h1.05v8.52h-1.05v-8.52Z"/>
    <path d="m1578.66,447.02l-.08-.73h-.04c-.32.46-.95.86-1.78.86-1.17,0-1.77-.83-1.77-1.67,0-1.4,1.25-2.17,3.49-2.16v-.12c0-.48-.13-1.34-1.32-1.34-.54,0-1.1.17-1.51.43l-.24-.7c.48-.31,1.17-.52,1.91-.52,1.78,0,2.21,1.21,2.21,2.37v2.17c0,.5.02,1,.1,1.39h-.96Zm-.16-2.96c-1.15-.02-2.46.18-2.46,1.31,0,.68.46,1.01,1,1.01.76,0,1.24-.48,1.4-.97.04-.11.06-.23.06-.34v-1.01Z"/>
    <path d="m1586.48,444.07c0,2.15-1.49,3.08-2.89,3.08-1.57,0-2.78-1.15-2.78-2.99,0-1.94,1.27-3.08,2.88-3.08s2.79,1.21,2.79,2.99Zm-4.61.06c0,1.27.73,2.23,1.76,2.23s1.76-.95,1.76-2.25c0-.98-.49-2.23-1.74-2.23s-1.79,1.15-1.79,2.25Z"/>
    <path d="m1587.82,443.02c0-.68-.01-1.27-.05-1.81h.92l.04,1.14h.05c.26-.78.9-1.27,1.61-1.27.12,0,.2.01.3.04v1c-.11-.02-.22-.04-.36-.04-.74,0-1.27.56-1.42,1.36-.02.14-.05.31-.05.49v3.09h-1.04v-3.99Z"/>
    <path d="m1592.21,444.31c.02,1.43.94,2.01,1.99,2.01.76,0,1.21-.13,1.61-.3l.18.76c-.37.17-1.01.36-1.93.36-1.79,0-2.85-1.18-2.85-2.93s1.03-3.13,2.72-3.13c1.89,0,2.4,1.67,2.4,2.73,0,.22-.02.38-.04.49h-4.08Zm3.09-.76c.01-.67-.28-1.71-1.46-1.71-1.07,0-1.54.98-1.62,1.71h3.08Z"/>
    <path d="m1598.22,444.31c.02,1.43.94,2.01,1.99,2.01.76,0,1.21-.13,1.61-.3l.18.76c-.37.17-1.01.36-1.93.36-1.79,0-2.85-1.18-2.85-2.93s1.03-3.13,2.72-3.13c1.89,0,2.4,1.67,2.4,2.73,0,.22-.02.38-.04.49h-4.08Zm3.09-.76c.01-.67-.28-1.71-1.46-1.71-1.07,0-1.54.98-1.62,1.71h3.08Z"/>
    <path d="m1604.91,439.55v1.67h1.51v.8h-1.51v3.13c0,.72.2,1.13.79,1.13.28,0,.48-.04.61-.07l.05.79c-.2.08-.53.14-.94.14-.49,0-.89-.16-1.14-.44-.3-.31-.41-.83-.41-1.51v-3.17h-.9v-.8h.9v-1.39l1.03-.28Z"/>
    <path d="m1615.17,438.5v7.02c0,.52.01,1.1.05,1.5h-.95l-.05-1.01h-.02c-.32.65-1.03,1.14-1.98,1.14-1.4,0-2.48-1.19-2.48-2.95-.01-1.93,1.19-3.12,2.6-3.12.89,0,1.49.42,1.75.89h.02v-3.47h1.06Zm-1.06,5.07c0-.13-.01-.31-.05-.44-.16-.67-.73-1.22-1.52-1.22-1.09,0-1.74.96-1.74,2.24,0,1.18.58,2.15,1.71,2.15.71,0,1.36-.47,1.55-1.26.04-.14.05-.29.05-.46v-1.01Z"/>
    <path d="m1622.18,444.07c0,2.15-1.49,3.08-2.89,3.08-1.57,0-2.78-1.15-2.78-2.99,0-1.94,1.27-3.08,2.88-3.08s2.79,1.21,2.79,2.99Zm-4.61.06c0,1.27.73,2.23,1.76,2.23s1.76-.95,1.76-2.25c0-.98-.49-2.23-1.74-2.23s-1.79,1.15-1.79,2.25Z"/>
    <path d="m1623.51,438.5h1.05v8.52h-1.05v-8.52Z"/>
    <path d="m1631.6,444.07c0,2.15-1.49,3.08-2.89,3.08-1.57,0-2.78-1.15-2.78-2.99,0-1.94,1.27-3.08,2.88-3.08s2.79,1.21,2.79,2.99Zm-4.61.06c0,1.27.73,2.23,1.76,2.23s1.76-.95,1.76-2.25c0-.98-.49-2.23-1.74-2.23s-1.79,1.15-1.79,2.25Z"/>
    <path d="m1632.93,443.02c0-.68-.01-1.27-.05-1.81h.92l.04,1.14h.05c.26-.78.9-1.27,1.61-1.27.12,0,.2.01.3.04v1c-.11-.02-.22-.04-.36-.04-.74,0-1.27.56-1.42,1.36-.02.14-.05.31-.05.49v3.09h-1.04v-3.99Z"/>
    <path d="m1637.32,444.31c.02,1.43.94,2.01,1.99,2.01.76,0,1.21-.13,1.61-.3l.18.76c-.37.17-1.01.36-1.93.36-1.79,0-2.85-1.18-2.85-2.93s1.03-3.13,2.72-3.13c1.89,0,2.4,1.67,2.4,2.73,0,.22-.02.38-.04.49h-4.08Zm3.09-.76c.01-.67-.28-1.71-1.46-1.71-1.07,0-1.54.98-1.62,1.71h3.08Z"/>
    <path d="m1645.29,442.78c0-.6-.01-1.09-.05-1.57h.92l.05.94h.04c.32-.55.86-1.07,1.82-1.07.79,0,1.39.48,1.64,1.16h.02c.18-.32.41-.58.65-.76.35-.26.73-.41,1.28-.41.77,0,1.91.5,1.91,2.52v3.42h-1.03v-3.29c0-1.12-.41-1.79-1.26-1.79-.6,0-1.07.44-1.25.96-.05.14-.08.34-.08.53v3.59h-1.03v-3.48c0-.92-.41-1.6-1.21-1.6-.66,0-1.14.53-1.31,1.06-.06.16-.08.34-.08.52v3.5h-1.03v-4.23Z"/>
    <path d="m1658.51,447.02l-.08-.73h-.04c-.32.46-.95.86-1.78.86-1.17,0-1.77-.83-1.77-1.67,0-1.4,1.25-2.17,3.49-2.16v-.12c0-.48-.13-1.34-1.32-1.34-.54,0-1.1.17-1.51.43l-.24-.7c.48-.31,1.17-.52,1.91-.52,1.78,0,2.21,1.21,2.21,2.37v2.17c0,.5.02,1,.1,1.39h-.96Zm-.16-2.96c-1.15-.02-2.46.18-2.46,1.31,0,.68.46,1.01,1,1.01.76,0,1.24-.48,1.4-.97.04-.11.06-.23.06-.34v-1.01Z"/>
    <path d="m1666.09,441.21c-.02.42-.05.89-.05,1.6v3.37c0,1.33-.26,2.15-.83,2.65-.56.53-1.38.7-2.11.7s-1.46-.17-1.93-.48l.26-.8c.38.24.98.46,1.7.46,1.08,0,1.87-.56,1.87-2.03v-.65h-.02c-.32.54-.95.97-1.85.97-1.44,0-2.47-1.22-2.47-2.83,0-1.97,1.28-3.08,2.61-3.08,1.01,0,1.56.53,1.81,1.01h.02l.05-.88h.92Zm-1.09,2.29c0-.18-.01-.34-.06-.48-.19-.61-.71-1.12-1.48-1.12-1.01,0-1.73.85-1.73,2.19,0,1.14.58,2.09,1.71,2.09.65,0,1.24-.41,1.46-1.08.06-.18.08-.38.08-.56v-1.04Z"/>
    <path d="m1667.72,442.78c0-.6-.01-1.09-.05-1.57h.94l.06.96h.02c.29-.55.96-1.09,1.92-1.09.8,0,2.05.48,2.05,2.47v3.47h-1.05v-3.35c0-.94-.35-1.71-1.34-1.71-.7,0-1.24.49-1.42,1.08-.05.13-.07.31-.07.49v3.49h-1.05v-4.23Z"/>
    <path d="m1677.6,447.02l-.08-.73h-.04c-.32.46-.95.86-1.78.86-1.17,0-1.77-.83-1.77-1.67,0-1.4,1.25-2.17,3.49-2.16v-.12c0-.48-.13-1.34-1.32-1.34-.54,0-1.1.17-1.51.43l-.24-.7c.48-.31,1.17-.52,1.91-.52,1.78,0,2.21,1.21,2.21,2.37v2.17c0,.5.02,1,.1,1.39h-.96Zm-.16-2.96c-1.15-.02-2.46.18-2.46,1.31,0,.68.46,1.01,1,1.01.76,0,1.24-.48,1.4-.97.04-.11.06-.23.06-.34v-1.01Z"/>
    <path d="m1685.92,447.02l-.08-.73h-.04c-.32.46-.95.86-1.78.86-1.17,0-1.77-.83-1.77-1.67,0-1.4,1.25-2.17,3.49-2.16v-.12c0-.48-.13-1.34-1.32-1.34-.54,0-1.1.17-1.51.43l-.24-.7c.48-.31,1.17-.52,1.91-.52,1.78,0,2.21,1.21,2.21,2.37v2.17c0,.5.02,1,.1,1.39h-.96Zm-.16-2.96c-1.15-.02-2.46.18-2.46,1.31,0,.68.46,1.01,1,1.01.76,0,1.24-.48,1.4-.97.04-.11.06-.23.06-.34v-1.01Z"/>
    <path d="m1688.49,438.5h1.05v8.52h-1.05v-8.52Z"/>
    <path d="m1692.5,439.58c.01.36-.25.65-.67.65-.37,0-.64-.29-.64-.65s.28-.66.66-.66.65.29.65.66Zm-1.17,7.44v-5.8h1.05v5.8h-1.05Z"/>
    <path d="m1698.09,446.12h-.02c-.31.58-.96,1.03-1.9,1.03-1.35,0-2.46-1.18-2.46-2.94,0-2.17,1.4-3.13,2.63-3.13.9,0,1.5.44,1.79,1.01h.02l.04-.88h1c-.02.49-.04,1-.04,1.6v6.58h-1.06v-3.27Zm0-2.55c0-.14-.01-.31-.05-.44-.16-.65-.72-1.2-1.51-1.2-1.09,0-1.75.92-1.75,2.23,0,1.15.55,2.16,1.71,2.16.68,0,1.27-.42,1.51-1.15.05-.14.08-.35.08-.5v-1.09Z"/>
    <path d="m1705.75,445.44c0,.6.01,1.13.05,1.58h-.94l-.06-.95h-.02c-.28.47-.89,1.08-1.92,1.08-.91,0-2-.5-2-2.54v-3.39h1.05v3.21c0,1.1.34,1.85,1.3,1.85.71,0,1.2-.49,1.39-.96.06-.16.1-.35.1-.54v-3.56h1.05v4.22Z"/>
    <path d="m1710.72,447.02l-.08-.73h-.04c-.32.46-.95.86-1.78.86-1.17,0-1.77-.83-1.77-1.67,0-1.4,1.25-2.17,3.49-2.16v-.12c0-.48-.13-1.34-1.32-1.34-.54,0-1.1.17-1.51.43l-.24-.7c.48-.31,1.17-.52,1.91-.52,1.78,0,2.21,1.21,2.21,2.37v2.17c0,.5.02,1,.1,1.39h-.96Zm-.16-2.96c-1.15-.02-2.46.18-2.46,1.31,0,.68.46,1.01,1,1.01.76,0,1.24-.48,1.4-.97.04-.11.06-.23.06-.34v-1.01Z"/>
    <path d="m1713.29,442.78c0-.6-.01-1.09-.05-1.57h.92l.05.94h.04c.32-.55.86-1.07,1.82-1.07.79,0,1.39.48,1.64,1.16h.02c.18-.32.41-.58.65-.76.35-.26.73-.41,1.28-.41.77,0,1.91.5,1.91,2.52v3.42h-1.03v-3.29c0-1.12-.41-1.79-1.26-1.79-.6,0-1.07.44-1.25.96-.05.14-.08.34-.08.53v3.59h-1.03v-3.48c0-.92-.41-1.6-1.21-1.6-.66,0-1.14.53-1.31,1.06-.06.16-.08.34-.08.52v3.5h-1.03v-4.23Z"/>
    <path d="m1726.42,444.31c.02,1.43.94,2.01,1.99,2.01.76,0,1.21-.13,1.61-.3l.18.76c-.37.17-1.01.36-1.93.36-1.79,0-2.85-1.18-2.85-2.93s1.03-3.13,2.72-3.13c1.89,0,2.4,1.67,2.4,2.73,0,.22-.02.38-.04.49h-4.08Zm3.09-.76c.01-.67-.28-1.71-1.46-1.71-1.07,0-1.54.98-1.62,1.71h3.08Z"/>
    <path d="m1731.85,443.02c0-.68-.01-1.27-.05-1.81h.92l.04,1.14h.05c.26-.78.9-1.27,1.61-1.27.12,0,.2.01.3.04v1c-.11-.02-.22-.04-.36-.04-.74,0-1.27.56-1.42,1.36-.02.14-.05.31-.05.49v3.09h-1.04v-3.99Z"/>
    <path d="m1738.93,447.02l-.08-.73h-.04c-.32.46-.95.86-1.78.86-1.17,0-1.77-.83-1.77-1.67,0-1.4,1.25-2.17,3.49-2.16v-.12c0-.48-.13-1.34-1.32-1.34-.54,0-1.1.17-1.51.43l-.24-.7c.48-.31,1.17-.52,1.91-.52,1.78,0,2.21,1.21,2.21,2.37v2.17c0,.5.02,1,.1,1.39h-.96Zm-.16-2.96c-1.15-.02-2.46.18-2.46,1.31,0,.68.46,1.01,1,1.01.76,0,1.24-.48,1.4-.97.04-.11.06-.23.06-.34v-1.01Z"/>
    <path d="m1742.72,439.55v1.67h1.51v.8h-1.51v3.13c0,.72.2,1.13.79,1.13.28,0,.48-.04.61-.07l.05.79c-.2.08-.53.14-.94.14-.49,0-.89-.16-1.14-.44-.3-.31-.41-.83-.41-1.51v-3.17h-.9v-.8h.9v-1.39l1.03-.28Z"/>
  </g>
  <rect class="cls-22" x="1393.57" y="534" width="461" height="21"/>
  <g>
    <line class="cls-5" x1="1122.57" y1="432" x2="1269.51" y2="432"/>
    <polygon points="1260.76 461.92 1312.57 432 1260.76 402.08 1260.76 461.92"/>
  </g>
  <g>
    <line class="cls-5" x1="586.57" y1="432" x2="733.51" y2="432"/>
    <polygon points="724.76 461.92 776.57 432 724.76 402.08 724.76 461.92"/>
  </g>
  <text class="cls-36" transform="translate(799.88 278.16)"><tspan class="cls-13" x="0" y="0">T</tspan><tspan class="cls-38" x="13.56" y="0">r</tspan><tspan x="23.22" y="0">a</tspan><tspan class="cls-19" x="37.68" y="0">c</tspan><tspan class="cls-45" x="50.94" y="0">e</tspan><tspan x="65.61" y="0">, </tspan><tspan class="cls-17" x="78.18" y="0">L</tspan><tspan x="91.92" y="0">o</tspan><tspan class="cls-25" x="108.39" y="0">g</tspan><tspan x="124.71" y="0" xml:space="preserve">,  </tspan><tspan class="cls-34" x="143.64" y="0">M</tspan><tspan x="167.94" y="0">et</tspan><tspan class="cls-43" x="192.9" y="0">r</tspan><tspan x="202.83" y="0">ic ...</tspan></text>
  <text class="cls-36" transform="translate(859.08 565.74)"><tspan x="0" y="0">One </tspan><tspan class="cls-16" x="58.71" y="0">S</tspan><tspan x="73.68" y="0">ou</tspan><tspan class="cls-41" x="106.68" y="0">r</tspan><tspan class="cls-23" x="116.19" y="0">c</tspan><tspan x="129.45" y="0">e</tspan></text>
  <text class="cls-36" transform="translate(1506.08 181.74)"><tspan x="0" y="0">Single </tspan><tspan class="cls-16" x="83.7" y="0">S</tspan><tspan x="98.67" y="0">ou</tspan><tspan class="cls-41" x="131.67" y="0">r</tspan><tspan class="cls-23" x="141.18" y="0">c</tspan><tspan x="154.44" y="0">e</tspan><tspan class="cls-30" x="169.47" y="0"> </tspan><tspan class="cls-32" x="174.75" y="0">V</tspan><tspan x="191.01" y="0">iew</tspan></text>
  <text class="cls-36" transform="translate(1523.08 600.74)"><tspan class="cls-21" x="0" y="0">V</tspan><tspan class="cls-39" x="16.26" y="0">ie</tspan><tspan class="cls-23" x="38.31" y="0">w</tspan><tspan class="cls-49" x="60.21" y="0">s</tspan><tspan x="71.76" y="0">, </tspan><tspan class="cls-51" x="84.33" y="0">A</tspan><tspan x="102.6" y="0">le</tspan><tspan class="cls-46" x="124.71" y="0">r</tspan><tspan x="135.24" y="0">t</tspan><tspan class="cls-49" x="145.17" y="0">s</tspan><tspan x="156.72" y="0">, </tspan><tspan class="cls-51" x="169.29" y="0">S</tspan><tspan x="183.99" y="0">t</tspan><tspan class="cls-20" x="193.92" y="0">a</tspan><tspan x="208.26" y="0">ts ...</tspan></text>
</svg>